<svg width="145" height="27" viewBox="0 0 145 27" fill="none" xmlns="http://www.w3.org/2000/svg">
<path d="M40.2947 12.144V8.088H43.3427V12.144H53.6387V14.688H33.1907V12.144H40.2947ZM43.4147 25.128C42.4387 25.128 41.5107 25.04 40.6307 24.864C39.7667 24.688 39.0067 24.424 38.3507 24.072C37.6947 23.72 37.1747 23.28 36.7907 22.752C36.4067 22.24 36.2147 21.64 36.2147 20.952V20.232C36.2147 19.544 36.4067 18.944 36.7907 18.432C37.1747 17.904 37.6947 17.464 38.3507 17.112C39.0067 16.76 39.7667 16.496 40.6307 16.32C41.5107 16.144 42.4387 16.056 43.4147 16.056C44.3907 16.056 45.3107 16.144 46.1747 16.32C47.0547 16.496 47.8227 16.76 48.4787 17.112C49.1347 17.464 49.6547 17.904 50.0387 18.432C50.4227 18.944 50.6147 19.544 50.6147 20.232V20.952C50.6147 21.64 50.4227 22.24 50.0387 22.752C49.6547 23.28 49.1347 23.72 48.4787 24.072C47.8227 24.424 47.0547 24.688 46.1747 24.864C45.3107 25.04 44.3907 25.128 43.4147 25.128ZM43.4147 18.528C42.8867 18.528 42.3667 18.576 41.8547 18.672C41.3427 18.752 40.8867 18.872 40.4867 19.032C40.1027 19.192 39.7907 19.392 39.5507 19.632C39.3107 19.872 39.1907 20.136 39.1907 20.424V20.76C39.1907 21.048 39.3107 21.312 39.5507 21.552C39.7907 21.792 40.1027 21.992 40.4867 22.152C40.8867 22.312 41.3427 22.432 41.8547 22.512C42.3667 22.608 42.8867 22.656 43.4147 22.656C43.9427 22.656 44.4627 22.608 44.9747 22.512C45.4867 22.432 45.9347 22.312 46.3187 22.152C46.7187 21.992 47.0387 21.792 47.2787 21.552C47.5187 21.312 47.6387 21.048 47.6387 20.76V20.424C47.6387 20.136 47.5187 19.872 47.2787 19.632C47.0387 19.392 46.7187 19.192 46.3187 19.032C45.9347 18.872 45.4867 18.752 44.9747 18.672C44.4627 18.576 43.9427 18.528 43.4147 18.528ZM50.7347 2.952V6.216C50.7347 6.488 50.7187 6.824 50.6867 7.224C50.6707 7.608 50.6387 8.024 50.5907 8.472C50.5427 8.92 50.4867 9.368 50.4227 9.816C50.3587 10.264 50.2867 10.672 50.2067 11.04L47.2547 10.704C47.4307 9.856 47.5507 9.064 47.6147 8.328C47.6787 7.592 47.7107 6.92 47.7107 6.312V5.52H35.8547V2.952H50.7347ZM65.4552 25.128C64.4632 25.128 63.5432 25.032 62.6952 24.84C61.8472 24.648 61.1112 24.368 60.4872 24C59.8632 23.632 59.3672 23.184 58.9992 22.656C58.6472 22.128 58.4712 21.528 58.4712 20.856V19.8C58.4712 19.128 58.6472 18.528 58.9992 18C59.3672 17.472 59.8632 17.024 60.4872 16.656C61.1112 16.288 61.8472 16.008 62.6952 15.816C63.5432 15.624 64.4632 15.528 65.4552 15.528C66.4472 15.528 67.3672 15.624 68.2152 15.816C69.0632 16.008 69.7992 16.288 70.4232 16.656C71.0472 17.024 71.5352 17.472 71.8872 18C72.2552 18.528 72.4392 19.128 72.4392 19.8V20.856C72.4392 21.528 72.2552 22.128 71.8872 22.656C71.5352 23.184 71.0472 23.632 70.4232 24C69.7992 24.368 69.0632 24.648 68.2152 24.84C67.3672 25.032 66.4472 25.128 65.4552 25.128ZM69.3432 10.2H65.7672V7.632H69.3432V2.136H72.3672V15.408H69.3432V10.2ZM65.4552 18C64.9272 18 64.4232 18.056 63.9432 18.168C63.4632 18.264 63.0392 18.408 62.6712 18.6C62.3032 18.776 62.0072 18.992 61.7832 19.248C61.5592 19.488 61.4472 19.752 61.4472 20.04V20.616C61.4472 20.904 61.5592 21.168 61.7832 21.408C62.0072 21.664 62.3032 21.88 62.6712 22.056C63.0392 22.248 63.4632 22.392 63.9432 22.488C64.4232 22.6 64.9272 22.656 65.4552 22.656C65.9832 22.656 66.4872 22.6 66.9672 22.488C67.4472 22.392 67.8712 22.248 68.2392 22.056C68.6072 21.88 68.9032 21.664 69.1272 21.408C69.3512 21.168 69.4632 20.904 69.4632 20.616V20.04C69.4632 19.752 69.3512 19.488 69.1272 19.248C68.9032 18.992 68.6072 18.776 68.2392 18.6C67.8712 18.408 67.4472 18.264 66.9672 18.168C66.4872 18.056 65.9832 18 65.4552 18ZM54.8952 3.48H66.4152V6.048H62.2632V7.512C62.2632 7.8 62.2792 8.064 62.3112 8.304C62.3592 8.544 62.4392 8.776 62.5512 9C62.6792 9.224 62.8392 9.448 63.0312 9.672C63.2392 9.88 63.5032 10.104 63.8232 10.344C64.3352 10.728 64.8792 11.12 65.4552 11.52C66.0312 11.92 66.6232 12.312 67.2312 12.696L65.6232 14.832C64.5512 14.128 63.5672 13.448 62.6712 12.792C62.1592 12.424 61.7512 12.112 61.4472 11.856C61.1432 11.6 60.9672 11.408 60.9192 11.28H60.8952C60.8472 11.424 60.6632 11.656 60.3432 11.976C60.0232 12.28 59.5832 12.648 59.0232 13.08C58.5112 13.496 57.9832 13.912 57.4392 14.328C56.9112 14.728 56.3432 15.136 55.7352 15.552L53.9592 13.344C54.7272 12.832 55.4472 12.312 56.1192 11.784C56.8072 11.256 57.4072 10.768 57.9192 10.32C58.3352 9.952 58.6552 9.544 58.8792 9.096C59.1192 8.632 59.2392 8.104 59.2392 7.512V6.048H54.8952V3.48ZM92.1996 8.592H95.1276V11.232H92.1996V18.312H89.1756V2.136H92.1996V8.592ZM81.3516 21.648H92.7276V24.24H78.3036V18.024H81.3516V21.648ZM82.6716 4.368H87.4956V6.936H74.7276V4.368H79.6476V1.944H82.6716V4.368ZM81.1596 16.704C80.3116 16.704 79.5596 16.6 78.9036 16.392C78.2476 16.168 77.6876 15.872 77.2236 15.504C76.7756 15.136 76.4316 14.712 76.1916 14.232C75.9516 13.752 75.8316 13.24 75.8316 12.696V11.784C75.8316 11.24 75.9516 10.728 76.1916 10.248C76.4316 9.768 76.7756 9.344 77.2236 8.976C77.6876 8.608 78.2476 8.32 78.9036 8.112C79.5596 7.888 80.3116 7.776 81.1596 7.776C81.9916 7.776 82.7356 7.888 83.3916 8.112C84.0636 8.32 84.6236 8.608 85.0716 8.976C85.5356 9.344 85.8876 9.768 86.1276 10.248C86.3676 10.728 86.4876 11.24 86.4876 11.784V12.696C86.4876 13.24 86.3676 13.752 86.1276 14.232C85.8876 14.712 85.5356 15.136 85.0716 15.504C84.6236 15.872 84.0636 16.168 83.3916 16.392C82.7356 16.6 81.9916 16.704 81.1596 16.704ZM81.1596 10.152C80.7596 10.152 80.3996 10.208 80.0796 10.32C79.7756 10.432 79.5196 10.576 79.3116 10.752C79.1036 10.928 78.9436 11.12 78.8316 11.328C78.7356 11.536 78.6876 11.744 78.6876 11.952V12.528C78.6876 12.736 78.7356 12.944 78.8316 13.152C78.9436 13.36 79.1036 13.552 79.3116 13.728C79.5196 13.904 79.7756 14.048 80.0796 14.16C80.3996 14.272 80.7596 14.328 81.1596 14.328C81.5596 14.328 81.9116 14.272 82.2156 14.16C82.5356 14.048 82.7996 13.904 83.0076 13.728C83.2156 13.552 83.3676 13.36 83.4636 13.152C83.5756 12.944 83.6316 12.736 83.6316 12.528V11.952C83.6316 11.744 83.5756 11.536 83.4636 11.328C83.3676 11.12 83.2156 10.928 83.0076 10.752C82.7996 10.576 82.5356 10.432 82.2156 10.32C81.9116 10.208 81.5596 10.152 81.1596 10.152ZM108.24 12.144V8.088H111.288V12.144H121.584V14.688H101.136V12.144H108.24ZM111.36 25.128C110.384 25.128 109.456 25.04 108.576 24.864C107.712 24.688 106.952 24.424 106.296 24.072C105.64 23.72 105.12 23.28 104.736 22.752C104.352 22.24 104.16 21.64 104.16 20.952V20.232C104.16 19.544 104.352 18.944 104.736 18.432C105.12 17.904 105.64 17.464 106.296 17.112C106.952 16.76 107.712 16.496 108.576 16.32C109.456 16.144 110.384 16.056 111.36 16.056C112.336 16.056 113.256 16.144 114.12 16.32C115 16.496 115.768 16.76 116.424 17.112C117.08 17.464 117.6 17.904 117.984 18.432C118.368 18.944 118.56 19.544 118.56 20.232V20.952C118.56 21.64 118.368 22.24 117.984 22.752C117.6 23.28 117.08 23.72 116.424 24.072C115.768 24.424 115 24.688 114.12 24.864C113.256 25.04 112.336 25.128 111.36 25.128ZM111.36 18.528C110.832 18.528 110.312 18.576 109.8 18.672C109.288 18.752 108.832 18.872 108.432 19.032C108.048 19.192 107.736 19.392 107.496 19.632C107.256 19.872 107.136 20.136 107.136 20.424V20.76C107.136 21.048 107.256 21.312 107.496 21.552C107.736 21.792 108.048 21.992 108.432 22.152C108.832 22.312 109.288 22.432 109.8 22.512C110.312 22.608 110.832 22.656 111.36 22.656C111.888 22.656 112.408 22.608 112.92 22.512C113.432 22.432 113.88 22.312 114.264 22.152C114.664 21.992 114.984 21.792 115.224 21.552C115.464 21.312 115.584 21.048 115.584 20.76V20.424C115.584 20.136 115.464 19.872 115.224 19.632C114.984 19.392 114.664 19.192 114.264 19.032C113.88 18.872 113.432 18.752 112.92 18.672C112.408 18.576 111.888 18.528 111.36 18.528ZM118.68 2.952V6.216C118.68 6.488 118.664 6.824 118.632 7.224C118.616 7.608 118.584 8.024 118.536 8.472C118.488 8.92 118.432 9.368 118.368 9.816C118.304 10.264 118.232 10.672 118.152 11.04L115.2 10.704C115.376 9.856 115.496 9.064 115.56 8.328C115.624 7.592 115.656 6.92 115.656 6.312V5.52H103.8V2.952H118.68ZM125.072 16.152H139.304V24.72H136.28V18.72H125.072V16.152ZM139.304 4.896H142.184V7.488H139.304V9.504H142.184V12.096H139.304V15.144H136.304V2.136H139.304V4.896ZM127.784 14.064C126.888 14.064 126.088 13.92 125.384 13.632C124.68 13.344 124.088 12.968 123.608 12.504C123.128 12.04 122.76 11.504 122.504 10.896C122.248 10.288 122.12 9.656 122.12 9V7.944C122.12 7.304 122.248 6.68 122.504 6.072C122.76 5.448 123.128 4.904 123.608 4.44C124.088 3.976 124.68 3.6 125.384 3.312C126.088 3.024 126.888 2.88 127.784 2.88C128.68 2.88 129.48 3.024 130.184 3.312C130.888 3.6 131.48 3.976 131.96 4.44C132.44 4.904 132.808 5.448 133.064 6.072C133.32 6.68 133.448 7.304 133.448 7.944V9C133.448 9.656 133.32 10.288 133.064 10.896C132.808 11.504 132.44 12.04 131.96 12.504C131.48 12.968 130.888 13.344 130.184 13.632C129.48 13.92 128.68 14.064 127.784 14.064ZM127.784 5.472C127.336 5.472 126.936 5.552 126.584 5.712C126.248 5.856 125.96 6.048 125.72 6.288C125.48 6.528 125.296 6.8 125.168 7.104C125.056 7.408 125 7.712 125 8.016V8.928C125 9.232 125.056 9.536 125.168 9.84C125.296 10.144 125.48 10.416 125.72 10.656C125.96 10.896 126.248 11.096 126.584 11.256C126.936 11.4 127.336 11.472 127.784 11.472C128.232 11.472 128.624 11.4 128.96 11.256C129.312 11.096 129.608 10.896 129.848 10.656C130.088 10.416 130.264 10.144 130.376 9.84C130.504 9.536 130.568 9.232 130.568 8.928V8.016C130.568 7.712 130.504 7.408 130.376 7.104C130.264 6.8 130.088 6.528 129.848 6.288C129.608 6.048 129.312 5.856 128.96 5.712C128.624 5.552 128.232 5.472 127.784 5.472Z" fill="white"/>
<rect x="0.417358" y="3" width="22.085" height="22" rx="8" fill="#848FEF" fill-opacity="0.9"/>
<rect x="6.11673" y="3" width="16.5638" height="16.5" rx="2" fill="#FF5151" fill-opacity="0.9"/>
<rect x="11.4599" y="3" width="11.0425" height="11" rx="1" fill="#FFB23F" fill-opacity="0.9"/>
</svg>
