<svg width="144" height="27" viewBox="0 0 144 27" fill="none" xmlns="http://www.w3.org/2000/svg">
<path d="M39.8774 12.144V8.088H42.9254V12.144H53.2214V14.688H32.7734V12.144H39.8774ZM42.9974 25.128C42.0214 25.128 41.0934 25.04 40.2134 24.864C39.3494 24.688 38.5894 24.424 37.9334 24.072C37.2774 23.72 36.7574 23.28 36.3734 22.752C35.9894 22.24 35.7974 21.64 35.7974 20.952V20.232C35.7974 19.544 35.9894 18.944 36.3734 18.432C36.7574 17.904 37.2774 17.464 37.9334 17.112C38.5894 16.76 39.3494 16.496 40.2134 16.32C41.0934 16.144 42.0214 16.056 42.9974 16.056C43.9734 16.056 44.8934 16.144 45.7574 16.32C46.6374 16.496 47.4054 16.76 48.0614 17.112C48.7174 17.464 49.2374 17.904 49.6214 18.432C50.0054 18.944 50.1974 19.544 50.1974 20.232V20.952C50.1974 21.64 50.0054 22.24 49.6214 22.752C49.2374 23.28 48.7174 23.72 48.0614 24.072C47.4054 24.424 46.6374 24.688 45.7574 24.864C44.8934 25.04 43.9734 25.128 42.9974 25.128ZM42.9974 18.528C42.4694 18.528 41.9494 18.576 41.4374 18.672C40.9254 18.752 40.4694 18.872 40.0694 19.032C39.6854 19.192 39.3734 19.392 39.1334 19.632C38.8934 19.872 38.7734 20.136 38.7734 20.424V20.76C38.7734 21.048 38.8934 21.312 39.1334 21.552C39.3734 21.792 39.6854 21.992 40.0694 22.152C40.4694 22.312 40.9254 22.432 41.4374 22.512C41.9494 22.608 42.4694 22.656 42.9974 22.656C43.5254 22.656 44.0454 22.608 44.5574 22.512C45.0694 22.432 45.5174 22.312 45.9014 22.152C46.3014 21.992 46.6214 21.792 46.8614 21.552C47.1014 21.312 47.2214 21.048 47.2214 20.76V20.424C47.2214 20.136 47.1014 19.872 46.8614 19.632C46.6214 19.392 46.3014 19.192 45.9014 19.032C45.5174 18.872 45.0694 18.752 44.5574 18.672C44.0454 18.576 43.5254 18.528 42.9974 18.528ZM50.3174 2.952V6.216C50.3174 6.488 50.3014 6.824 50.2694 7.224C50.2534 7.608 50.2214 8.024 50.1734 8.472C50.1254 8.92 50.0694 9.368 50.0054 9.816C49.9414 10.264 49.8694 10.672 49.7894 11.04L46.8374 10.704C47.0134 9.856 47.1334 9.064 47.1974 8.328C47.2614 7.592 47.2934 6.92 47.2934 6.312V5.52H35.4374V2.952H50.3174ZM65.0378 25.128C64.0458 25.128 63.1258 25.032 62.2778 24.84C61.4298 24.648 60.6938 24.368 60.0698 24C59.4458 23.632 58.9498 23.184 58.5818 22.656C58.2298 22.128 58.0538 21.528 58.0538 20.856V19.8C58.0538 19.128 58.2298 18.528 58.5818 18C58.9498 17.472 59.4458 17.024 60.0698 16.656C60.6938 16.288 61.4298 16.008 62.2778 15.816C63.1258 15.624 64.0458 15.528 65.0378 15.528C66.0298 15.528 66.9498 15.624 67.7978 15.816C68.6458 16.008 69.3818 16.288 70.0058 16.656C70.6298 17.024 71.1178 17.472 71.4698 18C71.8378 18.528 72.0218 19.128 72.0218 19.8V20.856C72.0218 21.528 71.8378 22.128 71.4698 22.656C71.1178 23.184 70.6298 23.632 70.0058 24C69.3818 24.368 68.6458 24.648 67.7978 24.84C66.9498 25.032 66.0298 25.128 65.0378 25.128ZM68.9258 10.2H65.3498V7.632H68.9258V2.136H71.9498V15.408H68.9258V10.2ZM65.0378 18C64.5098 18 64.0058 18.056 63.5258 18.168C63.0458 18.264 62.6218 18.408 62.2538 18.6C61.8858 18.776 61.5898 18.992 61.3658 19.248C61.1418 19.488 61.0298 19.752 61.0298 20.04V20.616C61.0298 20.904 61.1418 21.168 61.3658 21.408C61.5898 21.664 61.8858 21.88 62.2538 22.056C62.6218 22.248 63.0458 22.392 63.5258 22.488C64.0058 22.6 64.5098 22.656 65.0378 22.656C65.5658 22.656 66.0698 22.6 66.5498 22.488C67.0298 22.392 67.4538 22.248 67.8218 22.056C68.1898 21.88 68.4858 21.664 68.7098 21.408C68.9338 21.168 69.0458 20.904 69.0458 20.616V20.04C69.0458 19.752 68.9338 19.488 68.7098 19.248C68.4858 18.992 68.1898 18.776 67.8218 18.6C67.4538 18.408 67.0298 18.264 66.5498 18.168C66.0698 18.056 65.5658 18 65.0378 18ZM54.4778 3.48H65.9978V6.048H61.8458V7.512C61.8458 7.8 61.8618 8.064 61.8938 8.304C61.9418 8.544 62.0218 8.776 62.1338 9C62.2618 9.224 62.4218 9.448 62.6138 9.672C62.8218 9.88 63.0858 10.104 63.4058 10.344C63.9178 10.728 64.4618 11.12 65.0378 11.52C65.6138 11.92 66.2058 12.312 66.8138 12.696L65.2058 14.832C64.1338 14.128 63.1498 13.448 62.2538 12.792C61.7418 12.424 61.3338 12.112 61.0298 11.856C60.7258 11.6 60.5498 11.408 60.5018 11.28H60.4778C60.4298 11.424 60.2458 11.656 59.9258 11.976C59.6058 12.28 59.1658 12.648 58.6058 13.08C58.0938 13.496 57.5658 13.912 57.0218 14.328C56.4938 14.728 55.9258 15.136 55.3178 15.552L53.5418 13.344C54.3098 12.832 55.0298 12.312 55.7018 11.784C56.3898 11.256 56.9898 10.768 57.5018 10.32C57.9178 9.952 58.2378 9.544 58.4618 9.096C58.7018 8.632 58.8218 8.104 58.8218 7.512V6.048H54.4778V3.48ZM91.7822 8.592H94.7102V11.232H91.7822V18.312H88.7582V2.136H91.7822V8.592ZM80.9342 21.648H92.3102V24.24H77.8862V18.024H80.9342V21.648ZM82.2542 4.368H87.0782V6.936H74.3102V4.368H79.2302V1.944H82.2542V4.368ZM80.7422 16.704C79.8942 16.704 79.1422 16.6 78.4862 16.392C77.8302 16.168 77.2702 15.872 76.8062 15.504C76.3582 15.136 76.0142 14.712 75.7742 14.232C75.5342 13.752 75.4142 13.24 75.4142 12.696V11.784C75.4142 11.24 75.5342 10.728 75.7742 10.248C76.0142 9.768 76.3582 9.344 76.8062 8.976C77.2702 8.608 77.8302 8.32 78.4862 8.112C79.1422 7.888 79.8942 7.776 80.7422 7.776C81.5742 7.776 82.3182 7.888 82.9742 8.112C83.6462 8.32 84.2062 8.608 84.6542 8.976C85.1182 9.344 85.4702 9.768 85.7102 10.248C85.9502 10.728 86.0702 11.24 86.0702 11.784V12.696C86.0702 13.24 85.9502 13.752 85.7102 14.232C85.4702 14.712 85.1182 15.136 84.6542 15.504C84.2062 15.872 83.6462 16.168 82.9742 16.392C82.3182 16.6 81.5742 16.704 80.7422 16.704ZM80.7422 10.152C80.3422 10.152 79.9822 10.208 79.6622 10.32C79.3582 10.432 79.1022 10.576 78.8942 10.752C78.6862 10.928 78.5262 11.12 78.4142 11.328C78.3182 11.536 78.2702 11.744 78.2702 11.952V12.528C78.2702 12.736 78.3182 12.944 78.4142 13.152C78.5262 13.36 78.6862 13.552 78.8942 13.728C79.1022 13.904 79.3582 14.048 79.6622 14.16C79.9822 14.272 80.3422 14.328 80.7422 14.328C81.1422 14.328 81.4942 14.272 81.7982 14.16C82.1182 14.048 82.3822 13.904 82.5902 13.728C82.7982 13.552 82.9502 13.36 83.0462 13.152C83.1582 12.944 83.2142 12.736 83.2142 12.528V11.952C83.2142 11.744 83.1582 11.536 83.0462 11.328C82.9502 11.12 82.7982 10.928 82.5902 10.752C82.3822 10.576 82.1182 10.432 81.7982 10.32C81.4942 10.208 81.1422 10.152 80.7422 10.152ZM107.823 12.144V8.088H110.871V12.144H121.167V14.688H100.719V12.144H107.823ZM110.943 25.128C109.967 25.128 109.039 25.04 108.159 24.864C107.295 24.688 106.535 24.424 105.879 24.072C105.223 23.72 104.703 23.28 104.319 22.752C103.935 22.24 103.743 21.64 103.743 20.952V20.232C103.743 19.544 103.935 18.944 104.319 18.432C104.703 17.904 105.223 17.464 105.879 17.112C106.535 16.76 107.295 16.496 108.159 16.32C109.039 16.144 109.967 16.056 110.943 16.056C111.919 16.056 112.839 16.144 113.703 16.32C114.583 16.496 115.351 16.76 116.007 17.112C116.663 17.464 117.183 17.904 117.567 18.432C117.951 18.944 118.143 19.544 118.143 20.232V20.952C118.143 21.64 117.951 22.24 117.567 22.752C117.183 23.28 116.663 23.72 116.007 24.072C115.351 24.424 114.583 24.688 113.703 24.864C112.839 25.04 111.919 25.128 110.943 25.128ZM110.943 18.528C110.415 18.528 109.895 18.576 109.383 18.672C108.871 18.752 108.415 18.872 108.015 19.032C107.631 19.192 107.319 19.392 107.079 19.632C106.839 19.872 106.719 20.136 106.719 20.424V20.76C106.719 21.048 106.839 21.312 107.079 21.552C107.319 21.792 107.631 21.992 108.015 22.152C108.415 22.312 108.871 22.432 109.383 22.512C109.895 22.608 110.415 22.656 110.943 22.656C111.471 22.656 111.991 22.608 112.503 22.512C113.015 22.432 113.463 22.312 113.847 22.152C114.247 21.992 114.567 21.792 114.807 21.552C115.047 21.312 115.167 21.048 115.167 20.76V20.424C115.167 20.136 115.047 19.872 114.807 19.632C114.567 19.392 114.247 19.192 113.847 19.032C113.463 18.872 113.015 18.752 112.503 18.672C111.991 18.576 111.471 18.528 110.943 18.528ZM118.263 2.952V6.216C118.263 6.488 118.247 6.824 118.215 7.224C118.199 7.608 118.167 8.024 118.119 8.472C118.071 8.92 118.015 9.368 117.951 9.816C117.887 10.264 117.815 10.672 117.735 11.04L114.783 10.704C114.959 9.856 115.079 9.064 115.143 8.328C115.207 7.592 115.239 6.92 115.239 6.312V5.52H103.383V2.952H118.263ZM124.655 16.152H138.887V24.72H135.863V18.72H124.655V16.152ZM138.887 4.896H141.767V7.488H138.887V9.504H141.767V12.096H138.887V15.144H135.887V2.136H138.887V4.896ZM127.367 14.064C126.471 14.064 125.671 13.92 124.967 13.632C124.263 13.344 123.671 12.968 123.191 12.504C122.711 12.04 122.343 11.504 122.087 10.896C121.831 10.288 121.703 9.656 121.703 9V7.944C121.703 7.304 121.831 6.68 122.087 6.072C122.343 5.448 122.711 4.904 123.191 4.44C123.671 3.976 124.263 3.6 124.967 3.312C125.671 3.024 126.471 2.88 127.367 2.88C128.263 2.88 129.063 3.024 129.767 3.312C130.471 3.6 131.063 3.976 131.543 4.44C132.023 4.904 132.391 5.448 132.647 6.072C132.903 6.68 133.031 7.304 133.031 7.944V9C133.031 9.656 132.903 10.288 132.647 10.896C132.391 11.504 132.023 12.04 131.543 12.504C131.063 12.968 130.471 13.344 129.767 13.632C129.063 13.92 128.263 14.064 127.367 14.064ZM127.367 5.472C126.919 5.472 126.519 5.552 126.167 5.712C125.831 5.856 125.543 6.048 125.303 6.288C125.063 6.528 124.879 6.8 124.751 7.104C124.639 7.408 124.583 7.712 124.583 8.016V8.928C124.583 9.232 124.639 9.536 124.751 9.84C124.879 10.144 125.063 10.416 125.303 10.656C125.543 10.896 125.831 11.096 126.167 11.256C126.519 11.4 126.919 11.472 127.367 11.472C127.815 11.472 128.207 11.4 128.543 11.256C128.895 11.096 129.191 10.896 129.431 10.656C129.671 10.416 129.847 10.144 129.959 9.84C130.087 9.536 130.151 9.232 130.151 8.928V8.016C130.151 7.712 130.087 7.408 129.959 7.104C129.847 6.8 129.671 6.528 129.431 6.288C129.191 6.048 128.895 5.856 128.543 5.712C128.207 5.552 127.815 5.472 127.367 5.472Z" fill="black"/>
<rect y="3" width="22.085" height="22" rx="8" fill="#848FEF" fill-opacity="0.9"/>
<rect x="5.6994" y="3" width="16.5638" height="16.5" rx="2" fill="#FF5151" fill-opacity="0.9"/>
<rect x="11.0425" y="3" width="11.0425" height="11" rx="1" fill="#FFB23F" fill-opacity="0.9"/>
</svg>
