<svg width="50" height="50" viewBox="0 0 50 50" fill="none" xmlns="http://www.w3.org/2000/svg">
<path d="M14.5189 14.5187C14.664 14.3732 14.8364 14.2578 15.0263 14.179C15.2161 14.1002 15.4196 14.0597 15.6251 14.0597C15.8306 14.0597 16.0341 14.1002 16.224 14.179C16.4138 14.2578 16.5862 14.3732 16.7314 14.5187L25.0001 22.7906L33.2689 14.5187C33.4141 14.3735 33.5866 14.2582 33.7764 14.1796C33.9662 14.101 34.1697 14.0605 34.3751 14.0605C34.5806 14.0605 34.784 14.101 34.9738 14.1796C35.1636 14.2582 35.3361 14.3735 35.4814 14.5187C35.6266 14.664 35.7419 14.8365 35.8205 15.0263C35.8991 15.2161 35.9396 15.4195 35.9396 15.625C35.9396 15.8304 35.8991 16.0339 35.8205 16.2237C35.7419 16.4135 35.6266 16.586 35.4814 16.7312L27.2095 25L35.4814 33.2687C35.6266 33.414 35.7419 33.5865 35.8205 33.7763C35.8991 33.9661 35.9396 34.1695 35.9396 34.375C35.9396 34.5804 35.8991 34.7839 35.8205 34.9737C35.7419 35.1635 35.6266 35.336 35.4814 35.4812C35.3361 35.6265 35.1636 35.7417 34.9738 35.8204C34.784 35.899 34.5806 35.9395 34.3751 35.9395C34.1697 35.9395 33.9662 35.899 33.7764 35.8204C33.5866 35.7417 33.4141 35.6265 33.2689 35.4812L25.0001 27.2094L16.7314 35.4812C16.5861 35.6265 16.4136 35.7417 16.2238 35.8204C16.034 35.899 15.8306 35.9395 15.6251 35.9395C15.4197 35.9395 15.2162 35.899 15.0264 35.8204C14.8366 35.7417 14.6641 35.6265 14.5189 35.4812C14.3736 35.336 14.2583 35.1635 14.1797 34.9737C14.1011 34.7839 14.0606 34.5804 14.0606 34.375C14.0606 34.1695 14.1011 33.9661 14.1797 33.7763C14.2583 33.5865 14.3736 33.414 14.5189 33.2687L22.7907 25L14.5189 16.7312C14.3733 16.5861 14.2579 16.4137 14.1791 16.2238C14.1004 16.034 14.0598 15.8305 14.0598 15.625C14.0598 15.4195 14.1004 15.216 14.1791 15.0261C14.2579 14.8363 14.3733 14.6639 14.5189 14.5187Z" fill="black"/>
</svg>
